<svg width="70" height="70" viewBox="0 0 70 70" fill="none" xmlns="http://www.w3.org/2000/svg"><defs><linearGradient id="sg" x1="0" y1="0" x2="70" y2="70" gradientUnits="userSpaceOnUse"><stop offset="0" stop-color="#ffd27a"/><stop offset="0.55" stop-color="#ff8bb3"/><stop offset="1" stop-color="#b48bff"/></linearGradient></defs>
<path d="M36.922 19.775C38.479 20.813 37.2463 18.4262 36.4827 20.1655C35.9087 21.4729 39.5996 19.5553 37.1417 19.5553" stroke="url(#sg)" stroke-width="1.73009" stroke-linecap="round" stroke-linejoin="round"/>
<path d="M21.1061 38.2263C20.6595 40.4591 21.8589 38.6901 20.325 38.6901C18.5934 38.6901 19.1302 40.1595 20.4471 40.4229" stroke="url(#sg)" stroke-width="1.73009" stroke-linecap="round" stroke-linejoin="round"/>
<path d="M50.9803 35.3707C52.2854 35.3707 50.1091 35.1629 50.48 35.8222C51.0232 36.788 53.388 36.6449 51.8589 35.3707" stroke="url(#sg)" stroke-width="1.73009" stroke-linecap="round" stroke-linejoin="round"/>
<path d="M32.7493 39.3244C34.6618 38.6869 31.7299 38.8382 33.1886 39.3244" stroke="url(#sg)" stroke-width="1.73009" stroke-linecap="round" stroke-linejoin="round"/>
<path d="M39.119 35.1509C39.4687 34.4515 38.805 34.9535 38.5943 35.2485C38.5343 35.3325 40.6618 34.208 38.8993 34.7116" stroke="url(#sg)" stroke-width="1.73009" stroke-linecap="round" stroke-linejoin="round"/>
<path d="M35.3821 54.0415C36.0104 54.6698 36.2607 54.2169 36.2607 53.5168C36.2607 53.2437 36.1975 54.0854 36.3095 54.3344C36.4167 54.5725 36.605 53.6394 36.6024 53.5778C36.5825 53.0992 36.156 53.2107 35.8214 53.1629" stroke="url(#sg)" stroke-width="1.73009" stroke-linecap="round" stroke-linejoin="round"/>
<path d="M3.75317 4.60524V65.4778" stroke="url(#sg)" stroke-width="1.73009" stroke-linecap="round" stroke-linejoin="round"/>
<path d="M3.83911 4.31666H65.8926" stroke="url(#sg)" stroke-width="1.73009" stroke-linecap="round" stroke-linejoin="round"/>
<path d="M65.9172 4.61842V65.6835" stroke="url(#sg)" stroke-width="1.73009" stroke-linecap="round" stroke-linejoin="round"/>
<path d="M3.89771 65.6287L65.3961 65.6287" stroke="url(#sg)" stroke-width="1.73009" stroke-linecap="round" stroke-linejoin="round"/>
</svg>
